<?xml version="1.0" encoding="UTF-8"?>
<svg version="1.1" xmlns="http://www.w3.org/2000/svg" width="600" height="600">
<path d="M0,0 L600,0 L600,600 L0,600 Z " fill="#FEFEFE" transform="translate(0,0)"/>
<path d="M0,0 L27,0 L27,1 L39,1 L39,2 L44,2 L44,3 L47,3 L47,4 L55,4 L55,5 L59,5 L59,6 L60,6 L60,7 L65,7 L65,8 L68,8 L68,9 L70,9 L70,10 L77,10 L77,11 L79,11 L79,12 L80,12 L80,13 L82,13 L82,14 L85,14 L85,15 L87,15 L87,16 L89,16 L89,17 L92,17 L92,18 L94,18 L94,19 L95,19 L95,20 L101,20 L101,21 L102,21 L102,22 L103,22 L103,23 L104,23 L104,24 L107,24 L107,25 L109,25 L109,26 L111,26 L111,27 L112,27 L112,28 L114,28 L114,29 L115,29 L115,30 L117,30 L117,31 L119,31 L119,32 L121,32 L121,33 L123,33 L123,35 L124,35 L124,36 L126,36 L126,37 L127,37 L127,38 L129,38 L129,39 L130,39 L130,40 L131,40 L131,41 L133,41 L133,42 L135,42 L135,44 L137,44 L137,45 L139,45 L139,47 L140,47 L140,48 L142,48 L142,49 L143,49 L143,50 L144,50 L144,51 L145,51 L145,52 L146,52 L146,53 L147,53 L147,54 L148,54 L148,55 L149,55 L149,56 L151,56 L151,58 L152,58 L152,59 L154,59 L154,60 L155,60 L155,61 L156,61 L156,63 L157,63 L157,64 L158,64 L158,65 L159,65 L159,66 L160,66 L160,68 L162,68 L162,69 L163,69 L163,71 L164,71 L164,72 L165,72 L165,73 L166,73 L166,74 L167,74 L167,75 L168,75 L168,76 L169,76 L169,77 L170,77 L170,78 L171,78 L171,80 L172,80 L172,82 L173,82 L173,84 L174,84 L174,85 L175,85 L175,87 L176,87 L176,88 L177,88 L177,89 L178,89 L178,90 L179,90 L179,92 L180,92 L180,94 L181,94 L181,95 L182,95 L182,98 L183,98 L183,99 L184,99 L184,101 L185,101 L185,103 L186,103 L186,104 L187,104 L187,106 L188,106 L188,108 L189,108 L189,110 L190,110 L190,112 L191,112 L191,114 L192,114 L192,117 L193,117 L193,119 L194,119 L194,120 L195,120 L195,122 L196,122 L196,125 L197,125 L197,126 L198,126 L198,129 L199,129 L199,133 L200,133 L200,135 L201,135 L201,137 L202,137 L202,141 L203,141 L203,148 L204,148 L204,150 L205,150 L205,152 L206,152 L206,157 L207,157 L207,164 L208,164 L208,168 L209,168 L209,176 L210,176 L210,184 L211,184 L211,212 L210,212 L210,224 L209,224 L209,233 L208,233 L208,237 L207,237 L207,240 L206,240 L206,248 L205,248 L205,252 L204,252 L204,254 L203,254 L203,260 L202,260 L202,261 L201,261 L201,264 L200,264 L200,266 L199,266 L199,270 L198,270 L198,272 L197,272 L197,273 L196,273 L196,275 L195,275 L195,280 L194,280 L194,282 L193,282 L193,284 L192,284 L192,285 L191,285 L191,288 L190,288 L190,290 L189,290 L189,292 L188,292 L188,294 L187,294 L187,296 L186,296 L186,297 L185,297 L185,300 L184,300 L184,301 L183,301 L183,303 L182,303 L182,304 L181,304 L181,306 L180,306 L180,308 L179,308 L179,310 L178,310 L178,312 L177,312 L177,313 L176,313 L176,314 L175,314 L175,316 L174,316 L174,317 L173,317 L173,318 L172,318 L172,319 L171,319 L171,320 L170,320 L170,322 L169,322 L169,324 L168,324 L168,325 L167,325 L167,326 L166,326 L166,327 L165,327 L165,328 L164,328 L164,329 L163,329 L163,331 L162,331 L162,332 L161,332 L161,333 L160,333 L160,334 L159,334 L159,335 L158,335 L158,336 L157,336 L157,337 L156,337 L156,338 L155,338 L155,340 L153,340 L153,342 L151,342 L151,344 L150,344 L150,345 L149,345 L149,346 L148,346 L148,347 L145,347 L145,348 L144,348 L144,349 L143,349 L143,350 L142,350 L142,351 L141,351 L141,352 L139,352 L139,356 L135,356 L135,357 L134,357 L134,358 L132,358 L132,360 L130,360 L130,361 L129,361 L129,362 L128,362 L128,363 L126,363 L126,364 L125,364 L125,365 L123,365 L123,366 L122,366 L122,367 L120,367 L120,368 L119,368 L119,369 L117,369 L117,370 L116,370 L116,371 L114,371 L114,372 L112,372 L112,373 L110,373 L110,374 L109,374 L109,375 L107,375 L107,376 L105,376 L105,377 L103,377 L103,378 L101,378 L101,379 L99,379 L99,380 L97,380 L97,381 L95,381 L95,382 L93,382 L93,383 L91,383 L91,384 L88,384 L88,385 L86,385 L86,386 L83,386 L83,387 L81,387 L81,388 L77,388 L77,389 L75,389 L75,390 L71,390 L71,391 L69,391 L69,392 L65,392 L65,393 L61,393 L61,394 L57,394 L57,395 L53,395 L53,396 L48,396 L48,397 L41,397 L41,398 L36,398 L36,399 L27,399 L27,400 L-3,400 L-3,399 L-15,399 L-15,398 L-19,398 L-19,397 L-28,397 L-28,396 L-32,396 L-32,395 L-36,395 L-36,394 L-39,394 L-39,393 L-43,393 L-43,392 L-47,392 L-47,391 L-49,391 L-49,390 L-53,390 L-53,389 L-56,389 L-56,388 L-59,388 L-59,387 L-62,387 L-62,386 L-64,386 L-64,385 L-67,385 L-67,384 L-69,384 L-69,383 L-71,383 L-71,382 L-73,382 L-73,381 L-75,381 L-75,380 L-77,380 L-77,379 L-80,379 L-80,378 L-81,378 L-81,377 L-83,377 L-83,376 L-85,376 L-85,375 L-87,375 L-87,374 L-88,374 L-88,373 L-90,373 L-90,372 L-92,372 L-92,371 L-94,371 L-94,370 L-95,370 L-95,369 L-97,369 L-97,368 L-99,368 L-99,367 L-100,367 L-100,366 L-101,366 L-101,365 L-103,365 L-103,364 L-105,364 L-105,363 L-106,363 L-106,362 L-107,362 L-107,361 L-108,361 L-108,360 L-110,360 L-110,358 L-111,358 L-111,359 L-113,359 L-113,356 L-115,356 L-115,355 L-116,355 L-116,354 L-117,354 L-117,353 L-118,353 L-118,352 L-120,352 L-120,351 L-121,351 L-121,349 L-123,349 L-123,348 L-124,348 L-124,347 L-125,347 L-125,346 L-127,346 L-127,345 L-128,345 L-128,344 L-129,344 L-129,343 L-130,343 L-130,341 L-131,341 L-131,340 L-133,340 L-133,338 L-134,338 L-134,337 L-135,337 L-135,336 L-136,336 L-136,335 L-137,335 L-137,334 L-138,334 L-138,333 L-139,333 L-139,332 L-140,332 L-140,331 L-141,331 L-141,329 L-142,329 L-142,328 L-144,328 L-144,326 L-145,326 L-145,324 L-146,324 L-146,323 L-147,323 L-147,322 L-148,322 L-148,320 L-149,320 L-149,319 L-150,319 L-150,318 L-151,318 L-151,316 L-152,316 L-152,315 L-153,315 L-153,313 L-154,313 L-154,312 L-156,312 L-156,310 L-157,310 L-157,308 L-158,308 L-158,306 L-159,306 L-159,304 L-160,304 L-160,303 L-161,303 L-161,301 L-162,301 L-162,299 L-163,299 L-163,298 L-164,298 L-164,296 L-165,296 L-165,293 L-166,293 L-166,292 L-167,292 L-167,290 L-168,290 L-168,288 L-169,288 L-169,287 L-170,287 L-170,284 L-171,284 L-171,282 L-172,282 L-172,280 L-173,280 L-173,276 L-174,276 L-174,274 L-175,274 L-175,271 L-176,271 L-176,269 L-177,269 L-177,268 L-178,268 L-178,266 L-179,266 L-179,259 L-180,259 L-180,257 L-181,257 L-181,256 L-182,256 L-182,249 L-183,249 L-183,248 L-184,248 L-184,244 L-185,244 L-185,240 L-186,240 L-186,232 L-187,232 L-187,222 L-188,222 L-188,218 L-189,218 L-189,184 L-188,184 L-188,176 L-187,176 L-187,168 L-186,168 L-186,164 L-185,164 L-185,158 L-184,158 L-184,152 L-183,152 L-183,147 L-182,147 L-182,145 L-181,145 L-181,142 L-180,142 L-180,138 L-178,138 L-178,134 L-177,134 L-177,130 L-176,130 L-176,128 L-175,128 L-175,125 L-174,125 L-174,124 L-173,124 L-173,119 L-172,119 L-172,117 L-171,117 L-171,116 L-170,116 L-170,114 L-169,114 L-169,112 L-168,112 L-168,110 L-167,110 L-167,108 L-166,108 L-166,106 L-165,106 L-165,104 L-164,104 L-164,102 L-162,102 L-162,100 L-161,100 L-161,96 L-160,96 L-160,95 L-159,95 L-159,94 L-158,94 L-158,92 L-157,92 L-157,90 L-156,90 L-156,89 L-155,89 L-155,88 L-154,88 L-154,87 L-153,87 L-153,85 L-152,85 L-152,84 L-151,84 L-151,82 L-150,82 L-150,80 L-149,80 L-149,79 L-148,79 L-148,78 L-147,78 L-147,77 L-146,77 L-146,76 L-145,76 L-145,74 L-144,74 L-144,73 L-143,73 L-143,72 L-142,72 L-142,71 L-141,71 L-141,70 L-140,70 L-140,67 L-138,67 L-138,66 L-137,66 L-137,65 L-136,65 L-136,64 L-135,64 L-135,63 L-134,63 L-134,62 L-133,62 L-133,61 L-132,61 L-132,60 L-131,60 L-131,59 L-130,59 L-130,58 L-129,58 L-129,57 L-128,57 L-128,56 L-127,56 L-127,55 L-126,55 L-126,54 L-125,54 L-125,53 L-124,53 L-124,52 L-123,52 L-123,51 L-122,51 L-122,50 L-121,50 L-121,49 L-120,49 L-120,48 L-119,48 L-119,47 L-118,47 L-118,46 L-117,46 L-117,45 L-115,45 L-115,44 L-113,44 L-113,43 L-112,43 L-112,42 L-111,42 L-111,41 L-110,41 L-110,40 L-109,40 L-109,39 L-107,39 L-107,38 L-105,38 L-105,37 L-104,37 L-104,36 L-103,36 L-103,35 L-102,35 L-102,34 L-100,34 L-100,33 L-98,33 L-98,32 L-97,32 L-97,31 L-95,31 L-95,30 L-94,30 L-94,29 L-92,29 L-92,28 L-89,28 L-89,27 L-87,27 L-87,25 L-85,25 L-85,24 L-83,24 L-83,23 L-82,23 L-82,22 L-80,22 L-80,21 L-78,21 L-78,20 L-75,20 L-75,19 L-74,19 L-74,18 L-71,18 L-71,17 L-69,17 L-69,16 L-65,16 L-65,15 L-63,15 L-63,13 L-60,13 L-60,12 L-57,12 L-57,11 L-53,11 L-53,10 L-51,10 L-51,9 L-48,9 L-48,8 L-43,8 L-43,7 L-37,7 L-37,5 L-31,5 L-31,4 L-29,4 L-29,3 L-21,3 L-21,2 L-9,2 L-9,1 L0,1 Z " fill="#F5F6F6" transform="translate(289,100)"/>
<path d="M0,0 L96,0 L96,1 L100,1 L100,2 L105,2 L105,3 L110,3 L110,4 L112,4 L112,5 L116,5 L116,6 L118,6 L118,7 L120,7 L120,8 L122,8 L122,9 L124,9 L124,10 L127,10 L127,11 L128,11 L128,12 L129,12 L129,13 L131,13 L131,14 L132,14 L132,15 L134,15 L134,16 L136,16 L136,17 L137,17 L137,18 L138,18 L138,19 L139,19 L139,20 L140,20 L140,21 L142,21 L142,22 L143,22 L143,24 L144,24 L144,25 L145,25 L145,26 L146,26 L146,27 L148,27 L148,29 L149,29 L149,30 L150,30 L150,31 L151,31 L151,32 L152,32 L152,34 L153,34 L153,35 L154,35 L154,36 L155,36 L155,37 L156,37 L156,39 L157,39 L157,41 L158,41 L158,42 L159,42 L159,45 L160,45 L160,47 L161,47 L161,49 L162,49 L162,51 L163,51 L163,53 L164,53 L164,57 L165,57 L165,59 L166,59 L166,64 L167,64 L167,67 L168,67 L168,89 L167,89 L167,90 L166,90 L166,91 L165,91 L165,92 L163,92 L163,93 L162,93 L162,94 L160,94 L160,95 L159,95 L159,96 L157,96 L157,97 L156,97 L156,98 L154,98 L154,99 L153,99 L153,100 L151,100 L151,101 L149,101 L149,102 L147,102 L147,103 L146,103 L146,104 L144,104 L144,105 L142,105 L142,106 L140,106 L140,107 L138,107 L138,108 L136,108 L136,109 L134,109 L134,110 L132,110 L132,111 L130,111 L130,112 L128,112 L128,113 L125,113 L125,114 L123,114 L123,115 L120,115 L120,116 L118,116 L118,117 L114,117 L114,118 L112,118 L112,119 L108,119 L108,120 L106,120 L106,121 L102,121 L102,122 L98,122 L98,123 L94,123 L94,124 L90,124 L90,125 L85,125 L85,126 L78,126 L78,127 L73,127 L73,128 L64,128 L64,129 L34,129 L34,128 L22,128 L22,127 L18,127 L18,126 L9,126 L9,125 L5,125 L5,124 L1,124 L1,123 L-2,123 L-2,122 L-6,122 L-6,121 L-10,121 L-10,120 L-12,120 L-12,119 L-16,119 L-16,118 L-19,118 L-19,117 L-22,117 L-22,116 L-25,116 L-25,115 L-27,115 L-27,114 L-30,114 L-30,113 L-32,113 L-32,112 L-34,112 L-34,111 L-36,111 L-36,110 L-38,110 L-38,109 L-40,109 L-40,108 L-43,108 L-43,107 L-44,107 L-44,106 L-46,106 L-46,105 L-48,105 L-48,104 L-50,104 L-50,103 L-51,103 L-51,102 L-53,102 L-53,101 L-55,101 L-55,100 L-57,100 L-57,99 L-58,99 L-58,98 L-60,98 L-60,97 L-62,97 L-62,96 L-63,96 L-63,95 L-64,95 L-64,94 L-66,94 L-66,93 L-68,93 L-68,92 L-69,92 L-69,91 L-70,91 L-70,90 L-71,90 L-71,89 L-73,89 L-73,77 L-72,77 L-72,67 L-71,67 L-71,64 L-70,64 L-70,59 L-69,59 L-69,57 L-68,57 L-68,55 L-67,55 L-67,51 L-66,51 L-66,49 L-65,49 L-65,47 L-64,47 L-64,44 L-63,44 L-63,43 L-62,43 L-62,41 L-61,41 L-61,39 L-60,39 L-60,37 L-59,37 L-59,36 L-58,36 L-58,34 L-57,34 L-57,33 L-56,33 L-56,32 L-55,32 L-55,31 L-54,31 L-54,30 L-53,30 L-53,29 L-52,29 L-52,28 L-51,28 L-51,26 L-50,26 L-50,25 L-49,25 L-49,24 L-48,24 L-48,23 L-47,23 L-47,22 L-45,22 L-45,21 L-44,21 L-44,20 L-43,20 L-43,19 L-42,19 L-42,18 L-41,18 L-41,17 L-40,17 L-40,16 L-38,16 L-38,15 L-37,15 L-37,14 L-36,14 L-36,13 L-34,13 L-34,12 L-32,12 L-32,11 L-30,11 L-30,10 L-28,10 L-28,9 L-26,9 L-26,8 L-24,8 L-24,7 L-22,7 L-22,6 L-20,6 L-20,5 L-16,5 L-16,4 L-14,4 L-14,3 L-11,3 L-11,2 L-7,2 L-7,1 L0,1 Z " fill="#E0E2E3" transform="translate(252,371)"/>
<path d="M0,0 L16,0 L16,1 L20,1 L20,2 L26,2 L26,3 L28,3 L28,4 L32,4 L32,5 L36,5 L36,6 L38,6 L38,8 L40,8 L40,9 L43,9 L43,10 L45,10 L45,11 L46,11 L46,12 L48,12 L48,13 L49,13 L49,14 L50,14 L50,15 L52,15 L52,16 L53,16 L53,17 L54,17 L54,18 L55,18 L55,19 L56,19 L56,20 L57,20 L57,21 L58,21 L58,22 L59,22 L59,23 L60,23 L60,24 L61,24 L61,25 L62,25 L62,26 L63,26 L63,28 L64,28 L64,29 L65,29 L65,30 L66,30 L66,32 L67,32 L67,33 L68,33 L68,35 L69,35 L69,36 L70,36 L70,38 L71,38 L71,40 L72,40 L72,42 L73,42 L73,46 L74,46 L74,48 L75,48 L75,52 L76,52 L76,56 L77,56 L77,60 L78,60 L78,94 L77,94 L77,98 L76,98 L76,103 L75,103 L75,106 L74,106 L74,110 L73,110 L73,112 L72,112 L72,114 L71,114 L71,116 L70,116 L70,119 L69,119 L69,120 L68,120 L68,122 L67,122 L67,124 L66,124 L66,125 L65,125 L65,126 L64,126 L64,127 L63,127 L63,129 L62,129 L62,130 L61,130 L61,131 L60,131 L60,132 L59,132 L59,133 L58,133 L58,134 L57,134 L57,135 L56,135 L56,136 L55,136 L55,137 L54,137 L54,138 L53,138 L53,139 L52,139 L52,140 L51,140 L51,141 L49,141 L49,142 L48,142 L48,143 L46,143 L46,144 L44,144 L44,145 L43,145 L43,146 L41,146 L41,147 L40,147 L40,148 L38,148 L38,149 L36,149 L36,150 L32,150 L32,151 L30,151 L30,152 L26,152 L26,153 L20,153 L20,154 L18,154 L18,155 L-2,155 L-2,154 L-6,154 L-6,153 L-11,153 L-11,152 L-14,152 L-14,151 L-16,151 L-16,150 L-19,150 L-19,149 L-22,149 L-22,148 L-24,148 L-24,147 L-26,147 L-26,146 L-27,146 L-27,145 L-28,145 L-28,144 L-30,144 L-30,143 L-32,143 L-32,141 L-35,141 L-35,140 L-36,140 L-36,139 L-37,139 L-37,138 L-38,138 L-38,137 L-39,137 L-39,136 L-41,136 L-41,134 L-42,134 L-42,133 L-43,133 L-43,132 L-44,132 L-44,131 L-45,131 L-45,130 L-46,130 L-46,129 L-47,129 L-47,128 L-48,128 L-48,126 L-49,126 L-49,124 L-51,124 L-51,122 L-52,122 L-52,120 L-53,120 L-53,119 L-54,119 L-54,117 L-55,117 L-55,114 L-56,114 L-56,112 L-57,112 L-57,110 L-58,110 L-58,106 L-59,106 L-59,104 L-60,104 L-60,98 L-61,98 L-61,94 L-62,94 L-62,60 L-61,60 L-61,56 L-60,56 L-60,52 L-59,52 L-59,48 L-58,48 L-58,46 L-57,46 L-57,42 L-56,42 L-56,40 L-55,40 L-55,38 L-54,38 L-54,37 L-53,37 L-53,34 L-52,34 L-52,33 L-51,33 L-51,32 L-50,32 L-50,30 L-49,30 L-49,29 L-48,29 L-48,27 L-46,27 L-46,25 L-45,25 L-45,24 L-44,24 L-44,23 L-43,23 L-43,22 L-42,22 L-42,21 L-41,21 L-41,20 L-40,20 L-40,19 L-39,19 L-39,18 L-38,18 L-38,17 L-37,17 L-37,16 L-36,16 L-36,15 L-35,15 L-35,14 L-33,14 L-33,13 L-32,13 L-32,12 L-30,12 L-30,11 L-28,11 L-28,9 L-25,9 L-25,8 L-23,8 L-23,7 L-21,7 L-21,6 L-18,6 L-18,5 L-15,5 L-15,4 L-14,4 L-14,3 L-10,3 L-10,2 L-4,2 L-4,1 L0,1 Z " fill="#E0E2E3" transform="translate(292,200)"/>
</svg>
