<?xml version="1.0" encoding="UTF-8"?>
<svg version="1.1" viewBox="0 0 2048 2048" width="530" height="530" xmlns="http://www.w3.org/2000/svg">
<path transform="translate(856,851)" d="m0 0h9l9 2 11 6 8 9 4 10 2 7v10l-10 17-13 28-8 18-13 15-6 6h-2v2l-8 7-5 4-7 2h-15l-4-4-3-6 2-5 4-5 5-8 9-11 9-10 14-19 9-11 7-11 7-10 1-4-9 2-18 8-19 14-11 9-16 15-14 15-10 14-8 16-5 16v11l3 7 9 6 15 7 20 7 17 8 18 11 8 8 8 16 1 4v16l-4 8-11 12-9 6-15 6-10 3-26-2-21-7-3 3-10-3-12-3-5-4-1-4 4-13 3-4 24 4 12 1 17-2 18-6 9-6 2-5-1-5-5-5-16-9-24-8-16-5-12-3-13-9-10-9-4-8-3-10v-26l6-21 8-16 12-18 10-11 7-8 10-10 11-9 11-8 16-12 15-10 19-10z" fill="#080808"/>
<path transform="translate(1319,931)" d="m0 0 10 1 9 4 7 5 1 7-5 20-3 8-6 51-4 16v17l3 16 6 15-1 3-2 1h-19l-5-13-4-15-2-36v-19l1-27-5 24-6 16-10 19-9 15-9 14-7 6-7 3h-9l-6-5-3-9-2-10v-8l1-9v-5l-15 30-10 15-12 12-10 5-14 4-8-1-9-5-7-8-5-9-4-11-2-7v-30l5-18 8-21 6-12 12-17 10-10 16-11h7l11 3 4 4 2 13v12l-4 19-6 18-6 14-8 10-11 8-7 4-1 5v16l6 13 5-1 10-9 8-11 12-17 9-12 8-8 5-16 3-12 6-16 5-6 13-8 12-5h11l9 4h3l7-16 6-12zm-122 43-6 11-6 12h2l6-11 6-9v-3zm80 15-6 5-5 15-4 23 1 5 4-2 8-15 7-16 3-9-1-5-1-1z" fill="#070707"/>
<path transform="translate(1125,840)" d="m0 0h13l4 4 1 2-1 15-8 37-5 21-5 38-2 18-1 16v47l1 14 4 17 8 24 4 6 8 6 3 1 13 1-1 4-6 5-10 4-4 3-6-1-10-5-12-12-8-13-5-15-2-15-4-4-1-9 1-2v-14l-1-5v-7l-5 1-6 10-3 9-11 20-8 10-7 7-9 6-10 2h-9l-5-3-4-5-3-11v-24l3-15 7-20 11-25 8-11 8-5 4-1h13l16 4 1-7 3-9 4-22 2-15 6-24 6-26 5-13 6-10zm-69 145-5 5-4 8-1 19-4 18-1 12 3 3 5-8 12-19 7-19v-6l-6-10-5-3z" fill="#090909"/>
<path transform="translate(1194,942)" d="m0 0h7l11 3 4 4 2 13v12l-4 19-6 18-6 14-8 10-11 8-7 4-1 5v16l6 13 5-1 10-9 8-11 12-17 9-12 8-8 5-16h1l-1 9-3 23-2-2-8 15-9 17-8 12-12 12-10 5-14 4-8-1-9-5-7-8-5-9-4-11-2-7v-30l5-18 8-21 6-12 12-17 10-10zm3 32-6 11-6 12h2l6-11 6-9v-3z" fill="#080808"/>
<path transform="translate(926,955)" d="m0 0h11l8 2 5 5 1 3v11l-5 12-4 4-5-1-11-8-4-1-3 9-4 13-5 25-1 16 1 4 5 1 6-3 10-9 8-10 14-14 1 3-5 14-5 13-7 11-8 10-7 5-13 2-12-2-6-3-6-5-5-10-2-12v-17l4-20 12-27 6-9 9-8 8-3z" fill="#0C0C0C"/>
<path transform="translate(985,957)" d="m0 0h9l6 4 7 8 5 8 1 7-3 7-3 6-5 25-3 19-5 26-4 31-6 5-5-1-4-5-6-13-3-14-1-9v-34l2-30 3-12 5-18 4-6z" fill="#030303"/>
<path transform="translate(767,1020)" d="m0 0 5 2 17 8 20 7 17 8 18 11 8 8 8 16 1 4v16l-4 8-11 12-9 6-15 6-10 3-26-2-21-7-3 3-10-3-12-3-5-4-1-4 4-13 3-4 24 4 12 1 17-2 18-6 9-6 3-4v5l-5 5-14 6-18 5h-18l-21-4h-7l-2 7-1 3h-2l2 5 8 4 12 3 1 2 3 1-1-7 1-5 10 6 5 5 9 4 16 1h9l8 1 1-4 10-3 15-8 8-8 4-8 1-3v-14l-4-11-5-8-6-7-14-8-16-9-14-5-16-6-15-8z" fill="#FEFEFE"/>
<path transform="translate(996,907)" d="m0 0 8 2 5 6 1 2v10l-6 8-6 3-9-1-8-7-2-5 2-9 8-7z" fill="#030303"/>
<path transform="translate(1125,840)" d="m0 0h13l4 4 1 2-1 15-8 37-5 21-5 38-2 18-1 16v47l1 14 2 13h-2v4h-2l-2-13 1-1 1-8h-3l-1-2v-13h1l1 9v-40l2-31 6-48 6-27 8-40v-10l-3-2h-11l-9 4-8 18-6 23-8 36-6 29h-1l1-10 2-11 2-15 6-24 6-26 5-13 6-10z" fill="#FEFEFE"/>
<path transform="translate(1319,931)" d="m0 0 10 1 9 4 7 5 1 7-5 20-3 8-6 51-4 16v17l3 16 6 15-1 3-2 1h-19l-5-13-1-8 2 3 4 11 3 4h10l5-3v-3l-4-2-3-16v-27l4-23 4-34 2-13 3-6-1-6 3-5 2-4-1-6-8-6-7-3-3 2v-3l-4 1-6 5-10 19-1-3 8-16 4-6z" fill="#FEFEFE"/>
<path transform="translate(985,957)" d="m0 0h9l6 4 7 8 5 8-1 3-4-6-9-12-4-2h-7l-8 5-4 11-5 21-2 24v41l3 18 6 16 4 4 5-2 2-10 4-24 2-9h1l-1 12-4 31-6 5-5-1-4-5-6-13-3-14-1-9v-34l2-30 3-12 5-18 4-6z" fill="#FEFEFE"/>
<path transform="translate(831,1100)" d="m0 0h3l-1 3-19 10-13 4-17 3-3-1-1-3h-8l-1-4h9l12-3 13-3h8 4z" fill="#E6E6E6"/>
<path transform="translate(926,955)" d="m0 0h11l8 2 5 5 1 3v11l-5 12-4 4-5-1-11-8-4-1-2 1 1-5 4 1 11 7 3 3v2l4-4 5-10 1-9-3-5-5-4-3-1h-16l-13 4-5 4-9 14-8 18-4 13-2 11v24l3 10 6 9-4-2-5-8-3-14v-18l4-20 12-27 6-9 9-8 8-3z" fill="#FEFEFE"/>
<path transform="translate(1097,1052)" d="m0 0h2l3 14 1 1v11l4 12 9 14 6 7 7 5 4 1h9l4-3 11-3h-4l-8-1-5-4-3-1-3-7 1-3 6 7 8 4 13 1-1 4-6 5-10 4-4 3-6-1-10-5-12-12-8-13-5-15-2-15-1-4z" fill="#FEFEFE"/>
<path transform="translate(786,892)" d="m0 0 2 1-14 12-19 19-9 11-9 13-8 16-4 10-3 13-1 8v14l3 13 5 8 5 5 6 5 16 9 1 2-9-3-11-7-11-10-4-8-3-10v-26l6-21 8-16 12-18 10-11 7-8 10-10 11-9z" fill="#FEFEFE"/>
<path transform="translate(1125,840)" d="m0 0h13l4 4 1 2v7l-2 2-1-10-3-2h-11l-9 4-8 18-6 23-8 36-6 29h-1l1-10 2-11 2-15 6-24 6-26 5-13 6-10z" fill="#FEFEFE"/>
<path transform="translate(996,907)" d="m0 0 8 2 5 6 1 2v10l-6 8-6 3-9-1-8-7-2-5 2-9 8-7zm-3 3-9 6-2 3v6l6 8 5 3 7-1 5-4 4-7-1-6-3-5-5-3z" fill="#FEFEFE"/>
<path transform="translate(1017,1025)" d="m0 0 1 4-2 9-1 9v16l2 11 4 6 7 3h7l10-3 8-6 10-10 5-7 1 2-8 11-8 8-9 6-10 2h-9l-5-3-4-5-3-11v-24l3-15z" fill="#FEFEFE"/>
<path transform="translate(1143,1011)" d="m0 0 1 3-5 22 1 9 1 6v12l5 16 8 13 3 4-4-2-7-9-5-10-4-14v-30l5-18z" fill="#FEFEFE"/>
<path transform="translate(831,1100)" d="m0 0h3l-1 3-19 10-13 4-17 3-3-1v-2l13-2 6-2 7-2 3-3-1-2 5 1 15-6z" fill="#FEFEFE"/>
<path transform="translate(883,859)" d="m0 0 4 2 6 7 4 10 2 7v10l-10 17-11 24-2-3 1-5 11-20 6-12 3-8-3-12-5-10z" fill="#FEFEFE"/>
<path transform="translate(1120,984)" d="m0 0h1v54l1 14 2 13h-2v4h-2l-2-13 1-1 1-8h-3l-1-2v-13h1l1 9v-40l1-16z" fill="#FEFEFE"/>
<path transform="translate(1277,988)" d="m0 0h7l5 3-3 10-16 33-6 10-1 2h-2v-7l2-4v2l4-4 8-16 8-18 1-7-1-2-6-1z" fill="#FEFEFE"/>
<path transform="translate(1227,1028)" d="m0 0 2 1-9 13-12 17-8 11-9 10-7 5-4-2-6-11 1-4 6 13 5-1 10-9 8-11 12-17 9-12z" fill="#FEFEFE"/>
<path transform="translate(1233,1045)" d="m0 0h1l2 21 3 8 5 5 6 1 8-4 9-8 8-14 4-4-2 5-8 14-7 8-10 5h-9l-6-5-3-9-2-10v-8z" fill="#FEFEFE"/>
<path transform="translate(1238,1007)" d="m0 0h1l-1 9-3 23-2-2-8 15-3 6-1-3 10-26 1-5 3-8z" fill="#FEFEFE"/>
<path transform="translate(1194,942)" d="m0 0h7l11 3 4 4 1 9-2-3-3-5v-2l-7-2h-12l-16 11-9 9v-3l10-10z" fill="#FEFEFE"/>
<path transform="translate(1216,961)" d="m0 0 2 1v12l-4 19-6 18-6 14-5 5 2-5 6-14 9-27 2-18-1-4z" fill="#FEFEFE"/>
<path transform="translate(1208,1078)" d="m0 0v3l-12 12-10 5-14 4-8-1-7-4 2-1 8 3h7l13-5 11-7z" fill="#FEFEFE"/>
<path transform="translate(781,1056)" d="m0 0 6 1 9 1 2 1v2l5 2 12 7 6 3 4 5v3h-2l-2-4-13-8-10-5-18-6z" fill="#FEFEFE"/>
<path transform="translate(850,924)" d="m0 0v3l-11 16-6 7-5 5-9 11-7 10-1-2 5-8 9-11 9-10 14-19z" fill="#FEFEFE"/>
<path transform="translate(1012,982)" d="m0 0 1 2-3 7-3 6-5 25-3 19-1 5h-1v-7l5-32 3-14 5-7z" fill="#FEFEFE"/>
<path transform="translate(736,1112)" d="m0 0 6 2 9 5 8 3 2-1 1 6-4-1v-2l-12-2-8-4-2-2z" fill="#030303"/>
<path transform="translate(934,1056)" d="m0 0v3l-6 7-6 4-13 2-12-2-6-3-1-2 5 2 3 1h17l8-3 9-7z" fill="#FEFEFE"/>
<path transform="translate(1200,969)" d="m0 0h2l-2 7-1-2h-2l-1 4-9 16v3l-2 5-2 3h-2l3-11 8-16z" fill="#FEFEFE"/>
<path transform="translate(1277,960)" d="m0 0h11l12 5-1 2-5-1-4-3h-13l-12 5-7 5-4-1 9-6z" fill="#FEFEFE"/>
<path transform="translate(856,851)" d="m0 0h9l9 2 9 5-2 1-11-4-5-1h-11l-13 4-6 2 3-3 12-5z" fill="#FEFEFE"/>
<path transform="translate(1308,963)" d="m0 0h1v11l-3 31h-1v-24l2-15z" fill="#FEFEFE"/>
<path transform="translate(1054,966)" d="m0 0h13l9 2v1l-21-1-10 5-5 5-3 2 2-4 5-6z" fill="#FEFEFE"/>
<path transform="translate(1057,1028)" d="m0 0 1 2-10 17-5 7h-2l-1-4 2-3 2 2 10-17z" fill="#FEFEFE"/>
<path transform="translate(1251,974)" d="m0 0 1 2-6 12-6 19h-1l1-10 7-18z" fill="#FEFEFE"/>
<path transform="translate(830,1072)" d="m0 0 4 1 4 8v4h-2l-6-7z" fill="#FEFEFE"/>
<path transform="translate(1120,1052)" d="m0 0h2l2 13h-2v4h-2l-2-13z" fill="#F9F9F9"/>
<path transform="translate(943,1024)" d="m0 0v3l-11 13-7 7-5 2 13-13 6-8z" fill="#FEFEFE"/>
<path transform="translate(809,1107)" d="m0 0 3 1-4 1-1 3-12 3-2 1-2-2 7-3 8-3z" fill="#030303"/>
<path transform="translate(810,976)" d="m0 0 1 2-1 2v7l3 5 2 2-5-1-5-9 2-5z" fill="#FEFEFE"/>
<path transform="translate(843,981)" d="m0 0 2 1-5 5-6 5-7 2-4-1 9-4 9-6z" fill="#FEFEFE"/>
<path transform="translate(742,1114)" d="m0 0 6 1 8 3 4 2-2 3-7-3-9-5z" fill="#FEFEFE"/>
<path transform="translate(852,885)" d="m0 0h3l-1 3-8 6h-2l2-4z" fill="#FEFEFE"/>
<path transform="translate(874,940)" d="m0 0 1 2-5 12-2-3v-4l3-3z" fill="#FEFEFE"/>
<path transform="translate(770,1051)" d="m0 0 6 2 4 4-9-2-3-2z" fill="#FEFEFE"/>
<path transform="translate(953,1014)" d="m0 0 1 3-4 10h-1v-10z" fill="#FEFEFE"/>
</svg>
