<?xml version="1.0" encoding="UTF-8"?>
<svg version="1.1" viewBox="0 0 2048 785" width="1048" height="402" xmlns="http://www.w3.org/2000/svg">
<path transform="translate(0)" d="m0 0h2048v785h-2048z" fill="#FEFEFE"/>
<path transform="translate(986,148)" d="m0 0h61l44 2 25 2 27 4 27 6 30 10 20 9 19 10 19 14 15 14 8 8 11 14 12 20 9 19 6 17 6 22 5 32 1 10v50l-2 21-4 24-6 22-6 17-9 19-12 19-8 10-12 14-12 11-13 10-15 10-21 11-25 10-23 7-23 5-25 4-22 2-24 1h-97l-6-2-1-2v-189h92v105l36-1 28-3 25-6 16-6 17-9 11-8 10-9 7-7 11-16 9-19 5-15 4-19 1-9v-47l-3-20-6-21-7-16-9-15-9-11-10-10-14-10-16-9-14-6-22-6-17-3-28-2h-25v106h-91l-1-1v-188l2-4 2-1z"/>
<path transform="translate(651,148)" d="m0 0h59l20 1 3 2 1 10v168l-1 14h-91l-1-106h-18l-25 1-18 2-24 6-16 6-16 8-17 12-12 11-10 13-12 23-6 18-5 25-1 10v32l2 17 4 20 7 20 8 16 8 12 11 12 14 11 15 9 14 6 19 6 22 4 19 2 129 1 1 1v76l-1 9-3 2h-99l-36-2-24-3-26-5-23-6-20-7-20-9-23-13-14-10-14-12-9-9-9-11-8-10-9-15-7-14-9-23-6-22-4-22-2-20-1-20v-17l2-30 5-30 8-28 11-26 8-14 8-12 13-15 15-15 17-13 13-8 17-9 28-11 25-7 24-5 21-3 40-3z"/>
<path transform="translate(1369,148)" d="m0 0h190l19 1v86l-1 1h-136v108h187l7 2 1 3v77l-3 5h-192v108h136l1 1v88l-7 1h-154l-62-1-6-3v-470l2-5 2-1z"/>
<path transform="translate(190,149)" d="m0 0h25l23 3 19 5 19 8 15 9 12 9 10 9 7 7 10 14 8 14 6 15 4 16 2 16v15l-2 1h-84l-4-16-5-13-7-9-8-7-14-6-19-3-16 1-15 4-11 6-4 4h-2l-2 4-6 9-4 9-2 8v23l4 11 6 10 8 8 14 8 12 3 38 4 20 4 21 7 23 12 11 8 10 9 10 10 10 14 8 15 7 19 4 20 1 8v29l-4 24-6 18-10 19-10 13-18 18-16 11-19 10-21 7-21 4-24 2v-87l21-4 12-5 10-7 9-10 5-11 2-8v-16l-3-12-5-10-11-12-11-7-8-4-9-3-20-2-21-3-24-6-20-8-18-10-11-8-10-9-11-12-10-15-8-17-5-17-3-19v-29l4-22 5-16 9-19 8-12 11-13 12-12 14-10 17-10 17-7 19-5z"/>
<path transform="translate(1837,149)" d="m0 0h6l4 5 16 41 20 51 15 39 18 46 16 41 19 49 15 38 18 47 15 38 16 41 11 29 3 10-3 4-16 1h-31l-43-1-6-14-13-38-13-36-15-42-16-46-13-36-15-42-4-13v-2h-2l-3 11-11 32-17 48-20 58-15 42-18 52-8 22-3 4h-90l-2-2 1-9 19-49 18-47 17-43 16-42 18-46 16-41 13-34 20-51 15-39 16-41 11-28 3-6z"/>
<path transform="translate(827,148)" d="m0 0h58l15 1v397h52l2 3 1 15v58l-1 4-3 2-53 1h-74l-66-1-5-2-1-2v-73l2-4 2-1h52v-397z"/>
</svg>
