<?xml version="1.0" encoding="utf-8" ?>
<svg xmlns="http://www.w3.org/2000/svg" xmlns:xlink="http://www.w3.org/1999/xlink" width="900" height="900">
	<path d="M353.991 112.683C362.632 111.749 372.156 112.49 380.886 112.489L435.691 112.5Q476.484 112.355 517.275 112.773C527.915 112.858 538.843 112.059 549.431 112.768Q554.638 113.106 559.743 114.181Q564.848 115.257 569.748 117.049C595.907 126.593 606.603 145.106 617.616 168.922C627.313 168.565 637.171 168.958 646.883 168.951L700.085 168.794L734.757 168.78C742.942 168.716 751.125 168.37 759.305 168.789C783.531 170.029 805.477 178.324 821.956 196.737C832.017 207.98 838.828 222.362 841.829 237.105C844.107 248.298 843.495 259.991 843.531 271.363L843.585 314.231L843.539 370.743C843.544 382.871 843.874 395.142 843.218 407.254C837.031 403.018 831.177 398.252 825.022 393.954Q816.055 387.675 806.648 382.076Q797.241 376.478 787.446 371.59C787.624 367.288 787.833 362.971 787.862 358.665C787.998 338.118 787.517 317.515 787.535 296.954L787.567 270.522C787.578 261.715 788.062 252.775 786.004 244.142C785.051 240.143 782.016 235.831 779.118 232.944C774.69 228.533 769.205 226.144 763.08 225.204C756.148 224.14 748.937 224.686 741.944 224.716L707.996 224.793L581.032 224.711C575.519 213.077 562.814 176.871 552.865 170.73C550.455 169.242 547.623 168.699 544.83 168.566C531.309 167.923 517.458 168.535 503.903 168.552L421.896 168.603L377.599 168.521C370.024 168.487 358.438 167.435 351.322 169.116C336.41 172.639 326.599 211.85 318.74 224.307C318.646 224.456 318.546 224.603 318.449 224.752L313.077 224.661C273.368 224.069 233.537 224.694 193.816 224.729Q178.069 224.78 162.323 224.623C153.756 224.545 144.833 223.982 136.354 225.348C130.363 226.314 124.994 228.901 120.668 233.17C110.581 243.121 111.983 257.823 112.299 270.811Q112.516 280.314 112.47 289.819L112.469 538.534L112.438 612.409C112.422 624.422 111.415 638.288 112.759 650.05C113.489 656.432 116.22 662.407 120.789 666.96C125.043 671.198 131.301 673.836 137.23 674.672C144.734 675.729 152.843 675.142 160.408 675.106L196.498 675.109L338.87 675.042C339.726 682.021 340.281 688.988 341.393 695.947C343.291 707.827 346.221 719.541 349.242 731.177L202.039 731.083L165.098 731.054C150.86 731.147 136.21 731.994 122.191 728.96Q120.766 728.656 119.353 728.302Q117.94 727.947 116.54 727.542Q115.141 727.138 113.757 726.683Q112.373 726.228 111.006 725.724Q109.639 725.22 108.291 724.667Q106.943 724.114 105.616 723.514Q104.288 722.913 102.983 722.265Q101.678 721.618 100.397 720.923Q99.1165 720.229 97.8612 719.49Q96.606 718.75 95.378 717.966Q94.1501 717.182 92.951 716.355Q91.7519 715.527 90.5832 714.657Q89.4145 713.788 88.2777 712.876Q87.141 711.965 86.0375 711.014Q84.9341 710.062 83.8655 709.072Q82.7969 708.082 81.7644 707.054C63.1464 688.818 56.3281 667.678 56.1899 642.074L56.3021 370.357L56.2689 293.538C56.2529 273.688 55.0273 253.093 58.7651 233.5C61.6368 218.448 69.7248 204.881 80.4599 194.099C92.253 182.254 106.96 174.427 123.213 170.636C137.553 167.292 166.433 168.81 182.132 168.809L282.718 168.801C286.967 157.15 293.412 145.349 301.668 136.104C315.54 120.569 333.553 113.873 353.991 112.683Z"/>
	<path d="M440.17 281.871C460.248 279.741 482.834 283.5 501.938 289.707C527.493 298.008 551.451 313.485 570.186 332.687C573.511 336.094 577.704 339.949 579.86 344.185C578.031 346.345 565.365 348.211 561.903 349.205C548.199 353.142 535.204 358.58 521.935 363.716C513.322 357.78 505.207 351.881 495.628 347.463Q494.392 346.897 493.143 346.362Q491.894 345.826 490.632 345.322Q489.37 344.818 488.096 344.344Q486.822 343.871 485.536 343.43Q484.251 342.988 482.955 342.578Q481.659 342.169 480.354 341.791Q479.048 341.413 477.734 341.068Q476.419 340.723 475.097 340.41Q473.774 340.097 472.444 339.817Q471.114 339.537 469.778 339.29Q468.442 339.042 467.1 338.828Q465.757 338.614 464.411 338.433Q463.064 338.252 461.713 338.104Q460.362 337.956 459.007 337.842Q457.653 337.728 456.296 337.647Q454.94 337.566 453.582 337.518Q452.223 337.471 450.864 337.456Q449.505 337.442 448.146 337.462Q446.787 337.481 445.429 337.534Q444.071 337.587 442.715 337.674Q441.359 337.76 440.005 337.88Q438.651 338 437.301 338.153Q435.95 338.307 434.604 338.493Q433.258 338.68 431.917 338.899Q430.576 339.119 429.24 339.371Q427.905 339.624 426.576 339.91Q425.247 340.195 423.926 340.513Q422.605 340.831 421.292 341.182Q419.979 341.533 418.675 341.915Q417.371 342.298 416.076 342.713Q414.782 343.128 413.499 343.575Q412.215 344.022 410.943 344.5C383.364 354.814 359.467 376.203 347.316 403.216Q346.754 404.464 346.224 405.726Q345.693 406.988 345.193 408.262Q344.693 409.537 344.224 410.823Q343.755 412.109 343.318 413.406Q342.881 414.703 342.475 416.011Q342.07 417.318 341.696 418.635Q341.323 419.952 340.982 421.278Q340.641 422.604 340.332 423.937Q340.024 425.271 339.748 426.612Q339.472 427.953 339.228 429.3Q338.985 430.647 338.775 431.999Q338.565 433.352 338.387 434.71Q338.21 436.067 338.066 437.428Q337.922 438.79 337.812 440.154Q337.701 441.518 337.624 442.885Q337.546 444.252 337.502 445.62Q337.458 446.988 337.448 448.357Q337.437 449.726 337.46 451.095Q337.483 452.463 337.539 453.831Q337.595 455.199 337.685 456.565Q337.774 457.931 337.897 459.294Q338.02 460.658 338.176 462.017Q338.332 463.377 338.522 464.733Q338.711 466.089 338.933 467.44Q339.156 468.79 339.411 470.135Q339.666 471.48 339.954 472.819Q340.242 474.157 340.562 475.488Q340.883 476.818 341.236 478.141Q341.589 479.464 341.974 480.777Q342.359 482.091 342.776 483.395Q343.193 484.699 343.642 485.992Q344.091 487.285 344.571 488.567C349.554 501.02 356.399 511.166 363.92 522.09Q359.627 531.121 356.151 540.498Q352.676 549.875 350.047 559.523C348.134 566.454 346.921 573.723 344.503 580.49Q342.894 579.515 341.45 578.308Q339.873 576.977 338.328 575.609Q336.784 574.24 335.274 572.834Q333.763 571.427 332.288 569.985Q330.812 568.542 329.372 567.063Q327.933 565.585 326.53 564.072Q325.127 562.558 323.761 561.011Q322.396 559.464 321.068 557.884Q319.741 556.304 318.453 554.691Q317.165 553.079 315.916 551.436Q314.668 549.793 313.46 548.119Q312.253 546.446 311.086 544.743Q309.92 543.041 308.796 541.31Q307.671 539.58 306.59 537.822Q305.508 536.065 304.47 534.281Q303.432 532.498 302.438 530.689Q301.444 528.881 300.494 527.049Q299.544 525.217 298.64 523.362Q297.735 521.507 296.877 519.63Q296.018 517.754 295.205 515.857Q294.393 513.96 293.627 512.044Q292.861 510.128 292.143 508.193Q291.424 506.259 290.753 504.307Q290.082 502.356 289.459 500.388Q288.836 498.421 288.261 496.439Q287.686 494.457 287.16 492.461Q286.634 490.466 286.157 488.458Q285.68 486.45 285.253 484.432Q284.825 482.413 284.447 480.384Q284.069 478.355 283.741 476.318Q283.412 474.281 283.134 472.236Q282.856 470.191 282.628 468.14Q282.4 466.089 282.222 464.033Q282.035 461.996 281.898 459.954Q281.761 457.913 281.675 455.868Q281.589 453.824 281.553 451.779Q281.517 449.733 281.531 447.687Q281.546 445.641 281.611 443.596Q281.676 441.551 281.791 439.508Q281.907 437.465 282.072 435.426Q282.238 433.387 282.454 431.352Q282.67 429.317 282.936 427.289Q283.202 425.26 283.518 423.239Q283.834 421.217 284.2 419.204Q284.566 417.191 284.981 415.188Q285.397 413.184 285.861 411.192Q286.326 409.199 286.84 407.219Q287.353 405.238 287.916 403.271Q288.478 401.304 289.089 399.351Q289.699 397.398 290.358 395.461Q291.017 393.524 291.723 391.604Q292.429 389.683 293.182 387.781Q293.936 385.879 294.736 383.996Q295.536 382.113 296.382 380.25Q297.229 378.387 298.121 376.546Q299.012 374.704 299.95 372.885Q300.887 371.067 301.868 369.271Q302.85 367.476 303.876 365.706Q304.901 363.935 305.97 362.191Q307.039 360.446 308.151 358.729Q309.263 357.011 310.416 355.321Q311.57 353.632 312.765 351.971Q313.96 350.31 315.196 348.679Q316.432 347.049 317.707 345.449Q318.982 343.849 320.297 342.281C351.373 305.207 392.372 286.022 440.17 281.871Z"/>
	<path d="M169.019 281.324C187.536 280.979 206.154 281.172 224.676 281.37L224.605 337.34C206.064 337.862 187.38 337.455 168.825 337.463C168.638 318.824 168.3 299.944 169.019 281.324Z"/>
	<path d="M631.329 900C624.345 897.573 610.008 897.055 601.768 895.735C581.3 892.454 561.107 885.729 542.288 877.121C482.512 849.779 432.883 797.593 410.043 735.784Q408.954 732.86 407.937 729.911Q406.92 726.961 405.976 723.988Q405.031 721.014 404.16 718.019Q403.289 715.023 402.491 712.007Q401.694 708.99 400.97 705.956Q400.247 702.921 399.598 699.869Q398.949 696.818 398.375 693.751Q397.802 690.684 397.303 687.605Q396.804 684.525 396.381 681.434Q395.958 678.343 395.611 675.242Q395.264 672.142 394.993 669.034Q394.722 665.926 394.528 662.812Q394.333 659.698 394.214 656.58Q394.096 653.463 394.054 650.343Q394.012 647.224 394.046 644.104Q394.081 640.984 394.192 637.866Q394.303 634.748 394.49 631.634Q394.677 628.52 394.941 625.411Q395.204 622.302 395.544 619.201Q395.883 616.1 396.299 613.008Q396.714 609.916 397.205 606.835Q397.697 603.754 398.263 600.686Q398.829 597.618 399.471 594.565Q400.112 591.511 400.828 588.475Q401.545 585.438 402.335 582.42Q403.125 579.402 403.989 576.404Q404.853 573.406 405.79 570.431Q406.728 567.455 407.737 564.503Q408.747 561.551 409.829 558.625Q410.911 555.698 412.064 552.799Q413.217 549.901 414.441 547.031Q415.665 544.161 416.959 541.322Q418.267 538.494 419.643 535.7Q421.019 532.905 422.463 530.145Q423.907 527.384 425.418 524.66Q426.93 521.936 428.507 519.25Q430.084 516.563 431.727 513.916Q433.369 511.269 435.076 508.663Q436.783 506.057 438.552 503.493Q440.322 500.93 442.154 498.41Q443.986 495.891 445.879 493.417Q447.772 490.943 449.725 488.516Q451.678 486.088 453.69 483.71Q455.702 481.331 457.771 479.003Q459.84 476.674 461.966 474.396Q464.091 472.119 466.272 469.894Q468.452 467.669 470.687 465.499Q472.921 463.328 475.208 461.212Q477.494 459.097 479.832 457.038Q482.17 454.978 484.557 452.977Q486.944 450.976 489.38 449.034Q491.816 447.091 494.298 445.209Q496.78 443.327 499.308 441.506Q501.835 439.685 504.407 437.926Q506.978 436.167 509.591 434.472Q512.205 432.777 514.859 431.146Q517.513 429.515 520.207 427.949Q522.9 426.384 525.63 424.884Q528.361 423.385 531.128 421.953Q533.894 420.521 536.695 419.157Q539.496 417.793 542.329 416.498Q545.162 415.202 548.026 413.977Q550.89 412.751 553.783 411.596Q556.676 410.441 559.597 409.357Q562.531 408.278 565.49 407.273Q568.45 406.267 571.434 405.335Q574.417 404.402 577.423 403.544Q580.429 402.686 583.455 401.902Q586.481 401.119 589.525 400.41Q592.57 399.702 595.631 399.069Q598.692 398.436 601.768 397.878Q604.844 397.321 607.932 396.84Q611.021 396.359 614.121 395.955Q617.22 395.551 620.329 395.223Q623.437 394.895 626.553 394.645Q629.669 394.394 632.79 394.22Q635.911 394.047 639.036 393.95Q642.16 393.854 645.286 393.835Q648.411 393.816 651.537 393.874Q654.662 393.932 657.785 394.068Q660.908 394.203 664.027 394.416Q667.145 394.629 670.258 394.918Q673.37 395.208 676.474 395.575Q679.579 395.941 682.673 396.384Q685.767 396.828 688.849 397.347Q691.932 397.867 695 398.462Q698.069 399.058 701.122 399.729Q704.175 400.401 707.21 401.147Q710.246 401.894 713.262 402.715Q716.278 403.537 719.272 404.433Q722.267 405.328 725.239 406.298Q728.211 407.268 731.157 408.31Q734.104 409.353 737.024 410.468Q739.944 411.584 742.836 412.771Q745.728 413.958 748.589 415.216Q751.451 416.474 754.28 417.803Q757.341 419.245 760.363 420.768Q763.385 422.291 766.365 423.894Q769.346 425.497 772.282 427.179Q775.219 428.861 778.109 430.62Q781 432.38 783.843 434.216Q786.685 436.052 789.478 437.963Q792.271 439.874 795.012 441.859Q797.752 443.844 800.439 445.901Q803.126 447.958 805.757 450.086Q808.388 452.214 810.962 454.412Q813.536 456.609 816.05 458.874Q818.564 461.139 821.016 463.471Q823.469 465.802 825.859 468.198Q828.249 470.594 830.574 473.053Q832.899 475.512 835.157 478.032Q837.416 480.552 839.607 483.131Q841.797 485.71 843.918 488.347Q846.039 490.984 848.09 493.676Q850.14 496.368 852.117 499.115Q854.095 501.861 855.999 504.658Q857.903 507.456 859.731 510.303Q861.56 513.151 863.312 516.046Q865.063 518.941 866.738 521.882Q868.412 524.823 870.007 527.808Q871.602 530.792 873.117 533.818Q874.632 536.844 876.066 539.909Q877.5 542.974 878.852 546.077Q880.204 549.179 881.472 552.316Q882.741 555.454 883.925 558.624Q885.11 561.794 886.209 564.994Q887.309 568.194 888.323 571.423Q889.336 574.651 890.264 577.906Q894.363 591.897 896.247 606.354C897.205 613.493 897.39 624.796 899.827 631.261C899.883 631.409 899.942 631.557 900 631.705L900 661.701L899.869 662.149C897.977 668.852 898.003 676.294 897.089 683.195Q894.879 698.767 890.787 713.954Q890.046 716.616 889.247 719.261Q888.448 721.906 887.592 724.533Q886.735 727.16 885.823 729.768Q884.91 732.376 883.94 734.964Q882.971 737.552 881.946 740.117Q880.921 742.683 879.841 745.227Q878.76 747.77 877.625 750.289Q876.489 752.808 875.299 755.302Q874.109 757.796 872.866 760.263Q871.622 762.73 870.326 765.17Q869.029 767.61 867.679 770.022Q866.33 772.433 864.929 774.814Q863.527 777.196 862.074 779.546Q860.622 781.896 859.118 784.215Q857.615 786.533 856.062 788.818Q854.509 791.104 852.906 793.355Q851.304 795.606 849.653 797.822Q848.002 800.037 846.303 802.217Q844.605 804.396 842.859 806.538Q841.114 808.68 839.323 810.784Q837.531 812.888 835.694 814.952Q833.858 817.016 831.977 819.041Q830.096 821.065 828.171 823.047Q826.247 825.03 824.28 826.971Q822.313 828.911 820.304 830.809Q818.296 832.706 816.246 834.56Q814.197 836.413 812.108 838.222Q810.019 840.03 807.891 841.793Q805.764 843.556 803.598 845.272Q801.433 846.989 799.23 848.658Q797.028 850.327 794.79 851.947Q792.552 853.568 790.28 855.14C783.074 860.174 775.165 864.764 767.519 869.114C744.14 882.414 717.268 891.599 690.776 896.06C682.614 897.435 668.995 897.807 662.06 900L631.329 900ZM651.203 843.73C706.187 841.35 754.913 820.377 792.379 779.625Q794.007 777.843 795.591 776.021Q797.175 774.199 798.714 772.339Q800.253 770.479 801.745 768.582Q803.238 766.685 804.683 764.751Q806.129 762.818 807.526 760.85Q808.923 758.881 810.272 756.879Q811.621 754.877 812.92 752.842Q814.219 750.808 815.468 748.742Q816.716 746.676 817.914 744.58Q819.111 742.484 820.257 740.359Q821.403 738.234 822.496 736.082Q823.589 733.929 824.629 731.751Q825.668 729.572 826.654 727.369Q827.64 725.165 828.572 722.938Q829.503 720.711 830.38 718.462Q831.256 716.213 832.078 713.942Q832.898 711.672 833.663 709.383Q834.428 707.093 835.137 704.785Q835.845 702.478 836.497 700.153Q837.148 697.829 837.742 695.489Q838.337 693.149 838.873 690.796Q839.41 688.442 839.888 686.076Q840.367 683.71 840.787 681.333Q841.207 678.955 841.569 676.569Q841.93 674.182 842.233 671.787Q842.536 669.392 842.78 666.99Q843.024 664.589 843.209 662.182Q843.393 659.775 843.519 657.364Q843.645 654.953 843.711 652.54Q843.777 650.127 843.784 647.713Q843.791 645.299 843.739 642.886Q843.687 640.472 843.575 638.061C841.412 587.338 818.964 536.981 781.354 502.591Q778.624 500.051 775.799 497.616Q772.974 495.181 770.06 492.854Q767.145 490.528 764.144 488.313Q761.144 486.098 758.062 483.999Q754.979 481.899 751.82 479.917Q748.661 477.936 745.429 476.075Q742.197 474.214 738.897 472.477Q735.597 470.74 732.233 469.129Q728.87 467.518 725.448 466.035Q722.026 464.552 718.551 463.2Q715.075 461.847 711.551 460.628Q708.027 459.408 704.459 458.322Q700.891 457.236 697.285 456.286Q693.678 455.336 690.039 454.523Q686.399 453.709 682.731 453.035Q679.064 452.36 675.373 451.824C664.608 450.327 653.718 450.029 642.866 449.793C587.614 452.348 538.68 472.993 501.108 514.22Q499.804 515.65 498.528 517.106Q497.253 518.561 496.006 520.041Q494.759 521.522 493.542 523.026Q492.325 524.531 491.137 526.059Q489.95 527.588 488.793 529.139Q487.636 530.691 486.51 532.265Q485.383 533.839 484.289 535.435Q483.194 537.031 482.13 538.648Q481.067 540.265 480.036 541.903Q479.005 543.541 478.006 545.198Q477.007 546.856 476.042 548.534Q475.076 550.211 474.143 551.907Q473.211 553.603 472.312 555.317Q471.413 557.031 470.548 558.762Q469.683 560.493 468.853 562.241Q468.022 563.99 467.226 565.754Q466.43 567.518 465.669 569.297Q464.908 571.077 464.182 572.871Q463.456 574.665 462.766 576.473Q462.076 578.281 461.421 580.103Q460.767 581.924 460.148 583.758Q459.53 585.592 458.947 587.438Q458.365 589.283 457.819 591.14Q457.274 592.997 456.765 594.864Q456.256 596.732 455.784 598.609Q455.312 600.486 454.877 602.371Q454.442 604.257 454.044 606.151Q453.647 608.046 453.286 609.947Q452.926 611.849 452.603 613.757Q452.281 615.665 451.996 617.58Q451.711 619.494 451.464 621.413Q451.216 623.333 451.007 625.257C449.989 634.148 449.27 643.447 449.676 652.391C452.104 705.847 474.1 756.316 513.999 792.441C552.164 826.997 599.932 844.048 651.203 843.73Z"/>
	<path d="M618.926 506.376C637.44 506.086 656.163 506.175 674.678 506.589L674.616 579.555C674.604 591.798 673.651 607.022 675.031 618.834L747.59 618.796C760.836 618.794 774.255 618.365 787.477 618.964L787.345 674.722L714.567 674.681C701.368 674.678 687.901 674.121 674.733 674.895C674.977 678.716 674.654 682.71 674.643 686.548L674.605 711.876L674.609 787.361C656.041 787.803 637.371 787.455 618.792 787.457C618.4 750.006 618.772 712.515 618.802 675.06C613.691 674.377 608.313 674.659 603.161 674.662L578.793 674.695C554.715 674.732 530.523 674.267 506.459 674.851C506.169 666.053 506.548 657.194 506.578 648.388C506.612 638.588 506.339 628.792 506.482 618.992C521.412 618.418 536.391 618.846 551.328 618.892L618.801 618.777L618.776 546.703C618.778 533.283 618.494 519.786 618.926 506.376Z"/>
</svg>
