<?xml version="1.0" encoding="UTF-8"?>
<svg version="1.1" xmlns="http://www.w3.org/2000/svg" width="376" height="372">
<path d="M0 0 C2.31 0.66 4.62 1.32 7 2 C14.86170034 6.40613077 22.58014713 10.87134914 30 16 C31.18598049 16.7939412 32.37330479 17.58588207 33.5625 18.375 C36.6028434 20.4018956 38.88336823 22.88037767 41.4375 25.5 C43.54291046 27.55405898 45.60156182 29.31221017 48 31 C48 31.66 48 32.32 48 33 C49.32 33.66 50.64 34.32 52 35 C58 40 58 40 62 46 C64.31 48.31 66.62 50.62 69 53 C69.56267578 53.94359375 69.56267578 53.94359375 70.13671875 54.90625 C72.53561016 58.91850163 74.93739606 62.92483577 77.4375 66.875 C82.10451376 74.32716713 86.66352023 81.77330332 90.08984375 89.88671875 C91.57489655 93.33484563 93.29712501 96.65506699 95 100 C96.74080556 105.55897242 98.32764783 111.08273775 99.47265625 116.796875 C100.13870586 119.57948224 101.09520582 122.28561745 102 125 C106.46508584 152.90678648 109.33268739 183.50774938 99.71484375 210.92578125 C99.09640119 212.72027852 98.57050833 214.54617 98.0625 216.375 C94.98183253 226.88551255 91.24779137 239.12159672 85.4609375 248.4921875 C81.26204707 255.30162403 77.09549105 262.12764191 73 269 C72.01 269.99 71.02 270.98 70 272 C69.01 273.65 68.02 275.3 67 277 C66.25556641 277.72703125 66.25556641 277.72703125 65.49609375 278.46875 C62.06452125 281.85474184 58.73330935 285.25055549 55.625 288.9375 C52.17077184 292.96346247 48.31883466 296.4310676 44.33203125 299.921875 C42.13811059 301.87692657 40.05602941 303.90143205 38 306 C37.21625 306.515625 36.4325 307.03125 35.625 307.5625 C33.69145264 308.84554999 31.78678699 310.15325926 29.90234375 311.5078125 C-12.9647696 342.2805316 -62.50180365 349.4713782 -114 342 C-139.82071711 334.45417917 -163.53857502 325.69221943 -185 309 C-186.32 308.34 -187.64 307.68 -189 307 C-189.70640625 306.28199219 -190.4128125 305.56398438 -191.140625 304.82421875 C-193.91716488 302.04670259 -196.82418714 299.43257316 -199.75 296.8125 C-205.22867117 291.85800164 -210.18334173 286.60727137 -215 281 C-215.99 280.34 -216.98 279.68 -218 279 C-218.99 277.02 -219.98 275.04 -221 273 C-222.32 271.68 -223.64 270.36 -225 269 C-233 255 -233 255 -233 253 C-233.66 253 -234.32 253 -235 253 C-243.78512146 234.73797095 -251.43078548 217.07966981 -255.125 197.0625 C-255.30675781 196.09248047 -255.48851562 195.12246094 -255.67578125 194.12304688 C-256.54637546 189.47224097 -257 185.83558183 -257 181 C-257.33 180.34 -257.66 179.68 -258 179 C-258 150 -258 150 -257 148 C-256.97421875 147.28199219 -256.9484375 146.56398437 -256.921875 145.82421875 C-256.36177958 135.60247734 -255.21524773 123.6708956 -251.23046875 114.1640625 C-248.77910926 108.19633341 -246.74415146 102.21023625 -245 96 C-244.52949219 95.07058594 -244.05898437 94.14117187 -243.57421875 93.18359375 C-242.94520318 91.9349509 -242.31630312 90.68624985 -241.6875 89.4375 C-241.2244043 88.52387695 -241.2244043 88.52387695 -240.75195312 87.59179688 C-238.6720933 83.45397049 -236.7871417 79.27264338 -235 75 C-234.01 74.505 -234.01 74.505 -233 74 C-232.01 71.69 -231.02 69.38 -230 67 C-223 57 -223 57 -219 53 C-218.34 51.68 -217.68 50.36 -217 49 C-216.27184082 48.27401611 -215.54368164 47.54803223 -214.79345703 46.80004883 C-212.28096611 44.28162911 -209.78965544 41.74473958 -207.3046875 39.19921875 C-205.4950115 37.36176263 -203.68510884 35.52452972 -201.875 33.6875 C-200.988125 32.77548828 -200.10125 31.86347656 -199.1875 30.92382812 C-193.21681949 24.88824891 -187.0143371 19.77510526 -180 15 C-179.14583496 14.41041504 -178.29166992 13.82083008 -177.41162109 13.21337891 C-173.3971006 10.45917989 -169.39686279 8.10683009 -165 6 C-163.53759327 5.19485472 -162.07960923 4.38164854 -160.625 3.5625 C-148.91193182 -3 -148.91193182 -3 -144 -3 C-144 -3.66 -144 -4.32 -144 -5 C-143.18378174 -5.25692627 -143.18378174 -5.25692627 -142.35107422 -5.51904297 C-139.85888673 -6.30384622 -137.36694185 -7.08941716 -134.875 -7.875 C-134.0190625 -8.14441406 -133.163125 -8.41382813 -132.28125 -8.69140625 C-123.04916771 -11.58653927 -123.04916771 -11.58653927 -114 -15 C-113.4423999 -14.98839844 -112.8847998 -14.97679687 -112.31030273 -14.96484375 C-107.84649665 -14.91210124 -103.56471194 -15.09272514 -99.13232422 -15.7121582 C-64.48562383 -20.53032991 -31.18106551 -15.59053275 0 0 Z " fill="#F5F5F5" transform="translate(263,21)"/>
<path d="M0 0 C0.87884354 -0.00014603 1.75768707 -0.00029205 2.66316223 -0.0004425 C5.54703299 0.00025012 8.43083789 0.00801191 11.31469727 0.01586914 C13.32251449 0.01773563 15.33033218 0.01915844 17.33815002 0.02015686 C22.60705842 0.02396384 27.87593898 0.03377851 33.14483643 0.04486084 C38.52762475 0.05511416 43.9104176 0.05966287 49.29321289 0.06469727 C74.02525191 0.08979283 94.47400976 2.34057845 115.94360352 16.11352539 C115.94360352 16.77352539 115.94360352 17.43352539 115.94360352 18.11352539 C117.92360352 19.10352539 117.92360352 19.10352539 119.94360352 20.11352539 C123.94360352 24.11352539 123.94360352 24.11352539 123.94360352 26.11352539 C124.93360352 26.44352539 125.92360352 26.77352539 126.94360352 27.11352539 C138.58478756 44.75981591 143.20875495 59.87194918 142.94360352 81.11352539 C110.06724146 109.40030984 63.30449713 119.6197069 20.94360352 117.11352539 C-13.87126689 114.07397878 -47.28497325 102.71352124 -75.05639648 81.11352539 C-73.77068385 54.11356013 -68.21037263 39.38640629 -51.05639648 19.11352539 C-34.69694662 6.52933318 -20.18319616 -0.08888314 0 0 Z " fill="#E0E2E3" transform="translate(153.056396484375,248.886474609375)"/>
<path d="M0 0 C1.51811014 0.6569048 3.01826018 1.3552355 4.51171875 2.06640625 C4.51171875 2.72640625 4.51171875 3.38640625 4.51171875 4.06640625 C6.16171875 4.72640625 7.81171875 5.38640625 9.51171875 6.06640625 C24.49795719 18.055397 30.32315592 28.90643633 35.51171875 47.06640625 C35.51171875 95.63649971 35.51171875 95.63649971 18.421875 114.35546875 C2.81062669 129.87094253 -14.39513334 133.06640625 -36.48828125 133.06640625 C-53.12878461 130.04086019 -65.44209869 122.95361924 -76.48828125 110.06640625 C-77.14828125 109.73640625 -77.80828125 109.40640625 -78.48828125 109.06640625 C-92.47405347 84.68804439 -94.1104533 61.64955145 -86.48828125 33.06640625 C-80.45957394 21.55705592 -72.77726401 10.83979591 -61.48828125 4.06640625 C-60.82828125 4.06640625 -60.16828125 4.06640625 -59.48828125 4.06640625 C-59.48828125 3.40640625 -59.48828125 2.74640625 -59.48828125 2.06640625 C-39.18085222 -6.29547629 -20.31354122 -7.62156413 0 0 Z " fill="#E0E2E3" transform="translate(214.48828125,100.93359375)"/>
<path d="M0 0 C0.66 0.33 1.32 0.66 2 1 C2 3.31 2 5.62 2 8 C0.68 7.67 -0.64 7.34 -2 7 C-1.34 4.69 -0.68 2.38 0 0 Z " fill="#ECECEC" transform="translate(17,120)"/>
<path d="M0 0 C1.65 0 3.3 0 5 0 C5 0.66 5 1.32 5 2 C6.32 2 7.64 2 9 2 C9 2.66 9 3.32 9 4 C6.36 3.67 3.72 3.34 1 3 C0.67 2.01 0.34 1.02 0 0 Z " fill="#FEFEFE" transform="translate(149,6)"/>
<path d="M0 0 C1.65 0.99 3.3 1.98 5 3 C4.34 3.66 3.68 4.32 3 5 C1.02 4.01 -0.96 3.02 -3 2 C-2.01 1.34 -1.02 0.68 0 0 Z " fill="#E8EAEA" transform="translate(106,344)"/>
<path d="M0 0 C1.65 0.33 3.3 0.66 5 1 C1 4 1 4 -1 4 C-0.67 2.68 -0.34 1.36 0 0 Z " fill="#E7EAEC" transform="translate(253,350)"/>
<path d="M0 0 C0.66 0.99 1.32 1.98 2 3 C0.02 3.99 0.02 3.99 -2 5 C-2 3.68 -2 2.36 -2 1 C-1.34 0.67 -0.68 0.34 0 0 Z " fill="#DDDDDD" transform="translate(30,95)"/>
<path d="M0 0 C0.99 0.33 1.98 0.66 3 1 C3 1.99 3 2.98 3 4 C1.68 3.34 0.36 2.68 -1 2 C-0.67 1.34 -0.34 0.68 0 0 Z " fill="#EFEFEF" transform="translate(250,16)"/>
<path d="M0 0 C1.32 0 2.64 0 4 0 C4 0.99 4 1.98 4 3 C3.01 3 2.02 3 1 3 C0.67 2.01 0.34 1.02 0 0 Z " fill="#C9CBCB" transform="translate(248,352)"/>
<path d="M0 0 C1.32 0.33 2.64 0.66 4 1 C3.67 1.99 3.34 2.98 3 4 C2.01 3.34 1.02 2.68 0 2 C0 1.34 0 0.68 0 0 Z " fill="#E3E3E3" transform="translate(300,44)"/>
<path d="M0 0 C0.99 0.33 1.98 0.66 3 1 C3 1.99 3 2.98 3 4 C2.01 4 1.02 4 0 4 C0 2.68 0 1.36 0 0 Z " fill="#D6D6D6" transform="translate(217,6)"/>
<path d="M0 0 C0.66 0.33 1.32 0.66 2 1 C1.67 1.99 1.34 2.98 1 4 C0.01 3.01 -0.98 2.02 -2 1 C-1.34 0.67 -0.68 0.34 0 0 Z " fill="#D9D9E1" transform="translate(119,350)"/>
<path d="M0 0 C0.66 0 1.32 0 2 0 C1.34 1.32 0.68 2.64 0 4 C-0.33 3.01 -0.66 2.02 -1 1 C-0.67 0.67 -0.34 0.34 0 0 Z " fill="#FBFBFB" transform="translate(346,268)"/>
</svg>
